<?xml version="1.0" encoding="utf-8"?>
<!-- Generated by IcoMoon.io -->
<!DOCTYPE svg PUBLIC "-//W3C//DTD SVG 1.1//EN" "http://www.w3.org/Graphics/SVG/1.1/DTD/svg11.dtd">
<svg version="1.1" xmlns="http://www.w3.org/2000/svg" xmlns:xlink="http://www.w3.org/1999/xlink" width="512" height="512" viewBox="0 0 512 512">
<g>
</g>
	<path d="M420.045 18.381h-328.1c-40.592 0-73.534 32.953-73.534 73.585v328.079c0 40.622 32.942 73.584 73.534 73.584h328.089c40.642 0 73.543-32.962 73.543-73.584v-328.089c0-40.622-32.901-73.575-73.534-73.575zM370.524 101.817c30.218 0 55.019 24.279 55.019 54.528 0 30.74-24.801 55.040-55.019 55.040-30.238 0-55.040-24.299-55.040-55.040 0-30.249 24.791-54.528 55.040-54.528zM141.465 101.817c30.238 0 55.040 24.279 55.040 54.528 0 30.74-24.802 55.040-55.040 55.040s-54.999-24.299-54.999-55.040c0.010-30.249 24.77-54.528 54.999-54.528zM247.071 410.204h-23.296v-115.548h-24.791v115.538h-114.534v-115.538h-24.29v115.538h-24.781v-139.315c0-25.282 20.839-46.121 46.121-46.121h119.47c25.754 0 46.111 20.839 46.111 46.121v139.326zM476.601 410.204h-23.777v-115.548h-24.279v115.538h-114.524v-115.538h-24.822v115.538h-24.289v-139.315c0-25.282 20.368-46.121 46.080-46.121h119.522c25.262 0 46.080 20.839 46.080 46.121v139.326z" fill="#000000" />
</svg>
